<?xml version="1.0" encoding="UTF-8"?>
<svg id="Layer_1" xmlns="http://www.w3.org/2000/svg" version="1.1" viewBox="0 0 173.93 116.96">
  <!-- Generator: Adobe Illustrator 29.3.0, SVG Export Plug-In . SVG Version: 2.1.0 Build 146)  -->
  <defs>
    <style>
      .st0 {
        fill: #1c1c1c;
      }

      .st1 {
        fill: #e8e8e8;
      }
    </style>
  </defs>
  <circle cx="88.7" cy="44.58" r="35.99"/>
  <g>
    <g>
      <path class="st0" d="M7.32,109.41v-15.87h3.04l6.75,11.2h-1.61l6.62-11.2h3.06v15.87h-3.42l-.05-10.58h.68l-5.35,8.88h-1.63l-5.42-8.88h.75v10.58h-3.42Z"/>
      <path class="st0" d="M30.48,95.51c-.67,0-1.2-.19-1.61-.57s-.61-.85-.61-1.41.2-1.03.61-1.41.94-.57,1.61-.57,1.18.18,1.6.53c.42.36.62.81.62,1.37,0,.59-.2,1.08-.61,1.46-.41.39-.94.58-1.61.58ZM28.71,109.41v-12.19h3.54v12.19h-3.54Z"/>
      <path class="st0" d="M40.77,109.59c-1.15,0-2.18-.26-3.11-.78s-1.65-1.25-2.18-2.19c-.53-.94-.79-2.04-.79-3.31s.26-2.37.79-3.31c.53-.94,1.25-1.67,2.18-2.19.92-.52,1.96-.78,3.11-.78,1.03,0,1.93.23,2.7.68s1.37,1.14,1.79,2.06c.42.92.63,2.1.63,3.54s-.2,2.6-.61,3.54c-.41.94-.99,1.63-1.76,2.07-.76.45-1.68.67-2.75.67ZM41.36,106.69c.59,0,1.12-.13,1.59-.4.47-.26.84-.65,1.12-1.17s.42-1.12.42-1.81-.14-1.31-.42-1.81c-.28-.5-.65-.88-1.12-1.14-.47-.26-1-.4-1.59-.4s-1.1.13-1.56.4c-.47.26-.84.65-1.12,1.14-.28.5-.42,1.1-.42,1.81s.14,1.3.42,1.81c.28.51.65.9,1.12,1.17.47.26.99.4,1.56.4ZM44.58,109.41v-2.49l.07-3.63-.23-3.6v-7.09h3.54v16.82h-3.38Z"/>
      <path class="st0" d="M58.63,97.03c.97,0,1.83.19,2.6.58.76.38,1.36.97,1.8,1.77.44.79.66,1.81.66,3.05v6.98h-3.54v-6.44c0-.98-.22-1.71-.65-2.18-.43-.47-1.04-.7-1.82-.7-.56,0-1.06.12-1.51.36-.45.24-.79.6-1.04,1.07-.25.47-.37,1.09-.37,1.86v6.03h-3.54v-12.19h3.38v3.38l-.63-1.02c.44-.82,1.06-1.44,1.88-1.88s1.75-.66,2.79-.66Z"/>
      <path class="st0" d="M68.65,95.51c-.67,0-1.2-.19-1.61-.57s-.61-.85-.61-1.41.2-1.03.61-1.41.94-.57,1.61-.57,1.18.18,1.6.53c.42.36.62.81.62,1.37,0,.59-.2,1.08-.61,1.46-.41.39-.94.58-1.61.58ZM66.88,109.41v-12.19h3.54v12.19h-3.54Z"/>
      <path class="st0" d="M78.87,108.82c-1.1,0-2.12-.25-3.04-.74-.92-.49-1.66-1.18-2.2-2.06s-.82-1.92-.82-3.09.27-2.23.82-3.12,1.28-1.57,2.2-2.05c.92-.48,1.93-.73,3.04-.73s1.97.21,2.75.62c.78.42,1.38,1.06,1.82,1.94.44.88.66,1.99.66,3.33s-.22,2.45-.66,3.32c-.44.87-1.05,1.52-1.82,1.94-.78.42-1.7.63-2.75.63ZM79.43,113.98c-1.15,0-2.26-.14-3.32-.42-1.07-.28-1.95-.7-2.66-1.26l1.41-2.56c.53.44,1.18.78,1.96,1.03.78.25,1.57.37,2.37.37,1.24,0,2.14-.28,2.72-.84.57-.56.86-1.39.86-2.49v-1.81l.23-3.08-.07-3.1v-2.61h3.35v10.15c0,2.25-.59,3.92-1.77,5-1.18,1.08-2.87,1.62-5.08,1.62ZM79.59,105.94c.62,0,1.17-.13,1.65-.39.48-.26.86-.61,1.13-1.06.27-.45.41-.97.41-1.56s-.13-1.13-.41-1.58c-.27-.45-.65-.79-1.13-1.03-.48-.24-1.04-.36-1.65-.36s-1.15.12-1.64.36c-.49.24-.88.59-1.16,1.03-.28.45-.42.97-.42,1.58s.14,1.11.42,1.56c.28.45.66.81,1.16,1.06.49.26,1.04.39,1.64.39Z"/>
      <path class="st0" d="M96.98,97.03c.97,0,1.83.19,2.6.58.76.38,1.36.97,1.8,1.77.44.79.66,1.81.66,3.05v6.98h-3.54v-6.44c0-.98-.21-1.71-.65-2.18-.43-.47-1.04-.7-1.82-.7-.56,0-1.06.12-1.51.36-.45.24-.79.6-1.04,1.07-.25.47-.37,1.09-.37,1.86v6.03h-3.54v-16.82h3.54v8l-.79-1.02c.44-.82,1.07-1.44,1.88-1.88.82-.44,1.75-.66,2.79-.66Z"/>
      <path class="st0" d="M103.78,100.2v-2.72h8.45v2.72h-8.45ZM110.21,109.59c-1.44,0-2.55-.37-3.35-1.1-.8-.73-1.2-1.82-1.2-3.28v-10.7h3.56v10.63c0,.51.13.91.4,1.2.26.29.62.43,1.08.43.57,0,1.06-.15,1.45-.45l.93,2.49c-.35.26-.77.45-1.28.58-.51.13-1.03.19-1.58.19Z"/>
      <path class="st0" d="M126.98,109.68c-1.27,0-2.49-.17-3.66-.51s-2.11-.78-2.82-1.33l1.25-2.77c.67.48,1.47.88,2.4,1.19.94.31,1.88.46,2.83.46.72,0,1.31-.08,1.76-.23.45-.15.77-.35.99-.6.21-.25.32-.54.32-.87,0-.42-.17-.76-.5-1.01s-.77-.45-1.33-.61c-.55-.16-1.15-.31-1.8-.45s-1.3-.32-1.96-.52-1.26-.48-1.81-.82-.99-.79-1.31-1.34c-.33-.55-.49-1.24-.49-2.07,0-.91.24-1.73.73-2.48.48-.75,1.22-1.34,2.21-1.79.99-.45,2.23-.67,3.73-.67,1,0,1.98.12,2.96.36.97.24,1.82.59,2.55,1.04l-1.16,2.77c-.71-.41-1.44-.71-2.2-.92s-1.48-.31-2.18-.31-1.31.08-1.75.24c-.44.16-.76.37-.96.65-.2.27-.31.57-.31.91,0,.42.17.76.5,1.02.33.26.77.46,1.31.6.54.14,1.15.29,1.81.43.66.14,1.32.32,1.97.53s1.25.48,1.79.8c.54.33.99.76,1.33,1.31s.51,1.24.51,2.05c0,.89-.25,1.71-.74,2.45s-1.24,1.34-2.23,1.79-2.24.68-3.74.68Z"/>
      <path class="st0" d="M136.21,109.41v-15.87h6.87c1.42,0,2.64.23,3.67.69s1.82,1.12,2.38,1.98c.56.86.84,1.88.84,3.06s-.28,2.22-.84,3.07c-.56.85-1.35,1.52-2.38,1.98-1.03.47-2.25.7-3.67.7h-4.85l1.68-1.66v6.03h-3.69ZM139.9,103.79l-1.68-1.75h4.65c1.12,0,1.96-.24,2.54-.73.57-.48.86-1.16.86-2.04s-.29-1.55-.86-2.03c-.57-.48-1.42-.71-2.54-.71h-4.65l1.68-1.75v9Z"/>
      <path class="st0" d="M150.71,109.41l7.05-15.87h3.63l7.12,15.87h-3.85l-5.83-14.01h1.47l-5.82,14.01h-3.76ZM154.27,106.01l.93-2.79h8.21l.95,2.79h-10.09Z"/>
    </g>
    <g>
      <path class="st1" d="M62.75,16.54c-.58.58-1.2,1.2-1.78,1.78-2.94,3.44-5.18,6.26-7.03,10.44-1.85,4.17-3.19,9.29-3.32,14.04,0,.22-.09.48-.1.63-.02.73,0,1.47,0,2.2.02.22.1.55.1.84,0,9.8,4.53,19.3,11.59,26.18,7.05,6.89,17.37,10.94,27.33,10.43,9.96-.51,18.62-4.79,25.61-12.16,6.99-7.37,9.97-17.68,9.97-27.8-.02-.22-.1-.55-.1-.84,0-4.8-1.77-10.2-3.74-14.36-1.97-4.16-4.22-7.18-7.53-10.46-3.31-3.28-6.36-5.37-10.57-7.43-4.21-2.06-9.53-3.41-14.46-3.53-4.93-.12-10.62,1.16-14.95,3.04-4.33,1.88-7.42,3.95-10.99,7M89.22,8.69c9.25,0,17.56,4.69,24.04,11.33,6.48,6.64,9.98,16.45,9.65,25.82-.33,9.37-3.83,18.06-10.59,24.77-6.76,6.71-15.56,10.38-25.08,10.38-.29,0-.62-.08-.84-.1-9.11,0-17.5-4.52-23.93-11.01-6.43-6.49-9.76-16.17-9.76-25.29,0-9.12,3.58-18.52,10.07-24.98,6.49-6.46,14.98-10.91,24.14-10.91.72-.07,1.59-.07,2.3,0h0Z"/>
      <path class="st1" d="M88.7,11.2c-5.09-.62-8.71,4.57-6.69,8.99,2.02,4.42,7.88,4.88,10.84,1.23,2.96-3.65.5-9.66-4.15-10.22h0Z"/>
      <path class="st1" d="M66.41,27.42c.41-.48.88-.95,1.36-1.36,3.24-2.97,7.02-5.34,11.19-6.49-.21-.19-.64-.1-.94-.1h-.84c-7.99.21-14.85,4.88-18.75,11.9-3.9,7.03-4.06,17.18,1.07,23.77-3.5-9.86.45-20.17,6.91-27.72h0Z"/>
      <path class="st1" d="M120.09,43.63v-2.2c0-10.75-10.17-21.97-21.13-21.97h-1.26c-.33.06-.79-.12-1.05.1,14.26,4.15,24.25,20.81,19.56,35.26,2.21-3.25,3.87-7.14,3.87-11.19h0Z"/>
      <path class="st1" d="M91.84,32.55c-.29-.18-.2-.85-.21-1.46,0-2.5-2.15-3.87-4.5-3.56-2.34.31-3.75,2.6-3.24,5.02-1.42.07-.67,3.07.52,3.14.38,3.7,6.27,3.81,6.7.1,1.21-.4,1.74-2.61.73-3.24h0Z"/>
      <path class="st1" d="M70.29,27.63c-.33,1.47-1.1,3.13-2.82,3.35,1.9.05,2.61,2,2.82,3.56.08-1.61.83-3.34,2.62-3.56-1.55-.31-2.61-1.76-2.62-3.35h0Z"/>
      <path class="st1" d="M108.16,30.98c-1.66-.23-2.56-1.82-2.72-3.35-.21,1.47-1.07,3.1-2.72,3.35,1.67.18,2.72,1.81,2.62,3.45.38-.58.38-1.59.85-2.29.47-.7,1.25-.95,1.98-1.16h0Z"/>
      <path class="st1" d="M76.67,27.94c-.3-.16-.66.24-.38.49.27.24.72-.3.38-.49h0Z"/>
      <path class="st1" d="M98.85,27.94c-.22,1.27,1.17-.08,0,0h0Z"/>
      <path class="st1" d="M76.56,31.5c-.7-.04-.71,1.21,0,1.15.71-.07.59-1.12,0-1.15h0Z"/>
      <path class="st1" d="M99.16,31.5c-.66-.09-.88.99-.21,1.15.67.16.86-1.06.21-1.15h0Z"/>
      <path class="st1" d="M109.41,36.42c-.31.73-.64,1.72-1.57,1.88.92.18,1.48,1.18,1.46,2.09.21-.79.52-1.84,1.46-2.09-.85-.17-1.41-1.04-1.36-1.88h0Z"/>
      <path class="st1" d="M66.1,36.52c-.12.81-.69,1.6-1.57,1.78,1.04.1,1.36,1.22,1.67,1.99-.05-.91.49-1.76,1.36-1.99-.93-.08-1.3-.99-1.46-1.78h0Z"/>
      <path class="st1" d="M76.98,38.19c-.77,0-1.11-.89-1.26-1.46-.13.7-.62,1.38-1.36,1.57.89,0,1.21.94,1.46,1.57-.05-.79.59-1.28,1.15-1.67h0Z"/>
      <path class="st1" d="M99.79,36.73c-.13.63-.55,1.47-1.36,1.46.69.19,1.3.8,1.36,1.57.14-.63.54-1.28,1.15-1.57-.7-.12-1.03-.85-1.15-1.46h0Z"/>
      <path class="st1" d="M60.56,60.27c-.02.31,0,.63,0,.94-.2.86.49,1.35,1.05,1.78-.72-.25-2.15-.3-2.21-1.35-.06-1.05-1.6-1.81-1.43-.66.16,1.15.63,1.51,1.1,2.46.47.95,1.64.74,2.54,1.02.9.29,2.12-.03,2.96-.39.84-.36,1.68-.72,2.56-1,.88-.28,1.75-.66,2.64-.92.89-.25,1.88-.52,2.75-.8.88-.28,1.84-.53,2.66-.89.82-.37,1.49-.8,2.14-1.41s1.01-1.34,1.33-2.12c-.84.37-1.82,1.43-2.82,1.36-.08.16-.28.15-.42.21-.1.11-.25.22-.42.21.06-.19.27-.22.42-.31.12-.09.28-.14.42-.21,1.87-1.17,3.81-3.17,3.66-5.54-.14-2.38-.89-5.41,1.57-6.91-.35.61-.59,1.15-.76,1.86-.16.71-.03,1.6.2,2.25.23.66.55,1.09,1.05,1.56.5.47.94.81,1.52,1.09.59.29,1.09.66,1.67.95.58.29.82.94,1.3,1.31.48.38.49,1.43.87,1.75.09-.22.19-.72.21-.94,0-1.46-.16-3.2-1.23-4.21-1.07-1.01-2.02-1.77-2.12-3.22-.05-.3-.05-.54,0-.84-.06-1.24,1.58-2.4,0-2.83-1.58-.44-2.51-.55-4.09-.62,1-.39,2.53-.2,3.56-.31,1.03-.11,2.12,1.09,2.96.44.84-.64.33-2.29.11-3.09-.22-.8-1.19-1.44-1.6-2.16-.07.78.21,1.8.1,2.72-1.69.04-3.28,1.02-5.02,1.26-1.74.24-2.82,1.32-3.42,2.96-.6,1.65.95,3.83-.06,5.28-1.01,1.45-.78,3.49-.08,5.05-3.86.51-6.27,3.96-9.52,5.75-.57-.8-1.11-1.57-1.75-2.33-.64-.76-1.31-1.79-2.16-.94-.85.85-2.03.52-2.27,1.81M63.17,61.63c-.27.11-.38.03-.63,0-.27-.01-.67.01-.84-.21-.13-.17-.12-.4-.1-.63,0-.43,1.11-1.74,1.7-1.38.59.36.64,1.9-.13,2.22h0Z"/>
      <path class="st1" d="M88.91,41.96c-.01.27-.01.56,0,.84-.06.85.65,1.67,1.46,1.25.8-.42,1.72-.44,2.62-.52.9-.08,1.87.14,2.72.31-1.65.21-3.64.09-5.02,1.15.61.6,1,1.44,1.05,2.3.05.3.05.54,0,.84-.03,1.7-1.49,2.34-2.48,3.58-1,1.24-.83,3.41-.86,4.89.6-.93,1.19-2.13,2.17-2.96.98-.83,2.15-1.21,3.16-1.96.22-.19.54-.51.73-.73,1.22-1.54.99-3.77,0-5.34,2.34,1.64,1.76,4.52,1.57,6.91-.19,2.38,1.74,4.34,3.56,5.54.14.1.37.12.42.31-.17-.06-.42-.05-.52-.21-.94-.27-1.93-.67-2.62-1.36.22.88.75,1.5,1.39,2.17.63.67,1.31,1.07,2.15,1.41.84.34,1.75.66,2.63.92.89.26,1.83.58,2.73.83.89.26,1.75.62,2.62.94.87.33,1.69.65,2.55,1.01.85.36,2.1.57,3,.35.9-.23,2.07-.06,2.54-1.02.47-.96,1.02-1.24,1.12-2.43.11-1.19-1.33-.37-1.43.66-.1,1.03-1.51,1.07-2.23,1.33.56-.42,1-.7,1.05-1.46.01-.28,0-.56,0-.84.3-1.56-1.33-1.21-2.08-2.1-.76-.89-1.65-.22-2.28.66-.63.89-1.14,1.58-1.7,2.48-3.34-1.66-5.66-5.42-9.63-5.75.53-1.07.73-2.39.52-3.56-.21-1.17-1.19-1.91-.84-3.04.35-1.12.43-2.64.19-3.74-.25-1.1-.92-1.87-1.89-2.4-.97-.53-2.25-.68-3.31-.98-1.07-.3-2.13-.83-3.25-.94,0-.31,0-.63,0-.94,0-.22.09-.48.1-.63,0-.36-.02-.72.1-1.05-1.04.82-1.92,1.91-1.99,3.24M113.91,61.53c-.6-.04-1.53.43-1.91-.18-.39-.61-.12-1.33.14-1.91,1.01.07,2.11.95,1.78,2.09h0Z"/>
      <path class="st1" d="M71.02,40.08c-.43-.28-.9.42-.49.7.41.28.8-.49.49-.7h0Z"/>
      <path class="st1" d="M105.02,40.08c-.56-.24-.78.57-.34.75.45.18.68-.61.34-.75h0Z"/>
      <path class="st1" d="M73.63,43.43c-.52-.22-.68-.74-.94-1.15.04.62-.52.89-.94,1.15.67-.01.9.67,1.05,1.15.08-.51.37-.94.84-1.15h0Z"/>
      <path class="st1" d="M102.3,42.59c-.65-.08-.84.99-.18,1.11.66.13.81-1.03.18-1.11h0Z"/>
      <path class="st1" d="M65.58,43.11c1.02.14,0-.93,0,0h0Z"/>
      <path class="st1" d="M109.62,42.69c-.1,1.06,1.07-.13,0,0h0Z"/>
      <path class="st1" d="M68.4,44.37c-.26.83-.68,1.94-1.78,2.09,1.06.19,1.61,1.25,1.78,2.2-.02-1.02.67-2,1.67-2.2-1.02-.09-1.76-1.09-1.67-2.09h0Z"/>
      <path class="st1" d="M108.79,46.46c-.99-.15-1.53-1.13-1.67-1.99-.14.9-.75,1.88-1.78,1.99,1.01.22,1.63,1.21,1.88,2.09-.05-.98.71-1.81,1.57-2.09h0Z"/>
      <path class="st1" d="M86.82,44.58c-3.1.92-2.22,5.53.94,5.54,3.16.02,4.06-4.62.94-5.54,1.55,1.01,1.04,3.85-.94,3.87-1.98.02-2.52-2.88-.94-3.87h0Z"/>
      <path class="st1" d="M73.42,48.13c-.59-.18-.94.81-.31,1.05s.88-.88.31-1.05h0Z"/>
      <path class="st1" d="M102.72,48.13c-.58-.18-1.02.7-.38,1.01.64.31.98-.83.38-1.01h0Z"/>
      <path class="st1" d="M66,48.45c-.66-.34-1.1.6-.53.95.57.35,1.01-.7.53-.95h0Z"/>
      <path class="st1" d="M110.36,48.45c-.54-.25-1.04.58-.49.91.55.32,1.02-.66.49-.91h0Z"/>
      <path class="st1" d="M70.29,52.32c-.47-.18-.7.48-.28.7.42.21.59-.58.28-.7h0Z"/>
      <path class="st1" d="M105.75,52.32c-.36-.23-.83.36-.44.65.39.29.75-.46.44-.65h0Z"/>
      <path class="st1" d="M87.86,62.15c0,.17.02.36,0,.52-.01.1.01.21,0,.31-.19-.05-.23-.25-.21-.42-.02-.17,0-.35,0-.52.21-4.28-3.09-7.53-6.7-9.21.28.59.44,1.42.92,1.91.47.49.62,1.09,1.26,1.46.63.37,1.07,1.23.14.91-.93-.32-.81-.7-1.58-1.14.53,2.44,2.58,3.97,3.42,6.31.84,2.34,1.44,4.92,2.54,7.19,1.53-1.95,1.82-4.88,2.74-7.19.92-2.32,2.8-3.99,3.43-6.41-.7.56-1.37,1.32-2.3,1.36.97-1.46,2.54-2.66,3.14-4.39-3.98,1.48-6.8,4.99-6.8,9.31h0Z"/>
      <path class="st1" d="M75.41,58.49s-.03-.09,0-.1c-.15.09-.36.12-.42.31.17,0,.32-.1.42-.21h0Z"/>
      <path class="st1" d="M84.62,66.97c-.1-2.7-1.05-5.69-2.82-7.85.4,1.63-.37,3.18-.94,4.6,1.5.63,2.9,1.85,3.77,3.24h0Z"/>
      <path class="st1" d="M94.77,63.72c-.87-1.35-1.15-2.95-1.26-4.5-1.59,2.2-2.52,5.02-2.62,7.64.99-1.35,2.33-2.56,3.87-3.14h0Z"/>
      <path class="st1" d="M71.54,65.81c-.21-.02-.42.02-.63,0,.12-.2.43-.06.63-.1,5.46.03,10.26,2.72,14.75,5.44-.89-1.51-2.11-2.44-3.48-3.53-1.37-1.09-3.37-1.32-4.89-2.01-.1-.04-.31-.03-.31-.21h.42c.95,0,1.91-.04,2.82.1-2.12-1.42-4.72-2.09-7.32-2.09h-2.2c-2.26.31-5.75.05-6.82,2.59-1.08,2.54,1.48,4.23,3.68,5.16,2.2.93,5.03,1.68,7.64,1.77,2.61.09,6.04.67,8.68.42-4.53-2.49-9.14-5.3-14.44-5.75,3.81-.46,7.64.42,11.09,1.78-2.83-1.82-6.25-3.16-9.63-3.56h0Z"/>
      <path class="st1" d="M83.99,75.13c-.33.05-.61.06-.94,0-1.16-.06-3.28-1.14-4.37-.29-1.09.85-2.42.91-2.95,2.07,2.54-.23,4.92.32,7.32.84,2.41.52,4.43-1.04,6.41-1.96,1.99-.92,3.71-1.94,5.93-2.33,2.22-.4,5.27-.53,7.51-.86,2.23-.33,4.11-1.32,6.07-2.2,1.96-.88,3.32-3.69,1.51-5.23-1.81-1.54-4.23-1.75-6.51-1.75h-1.67c-2.76,0-5.38.71-7.74,1.99,1.03.13,2.48-.18,3.56.1-3.4.7-6.99,2.34-8.79,5.54,4.6-2.75,9.67-5.52,15.17-5.23-3.6.51-7.22,1.54-10.25,3.56,3.49-1.27,7.26-2.27,11.09-1.78-2.58.18-5.18,1.21-7.53,2.1-2.34.89-4.5,2.09-6.89,2.74-2.38.65-4.43,2.56-6.93,2.7h0Z"/>
      <path class="st1" d="M89.95,77.32c.7.23,1.72.44,2.51.42.78-.03,1.76-.23,2.44-.49.69-.26,1.93-.42,2.58-.35.65.07,2.43.36,2.28-.39-.16-.75-1.5-.42-1.95-.87-.45-.45-1.17-1-1.89-1.04-.72-.04-1.72.22-2.33.6-.61.38-1.23.73-1.85,1.08-.62.35-1.2.64-1.79,1.04h0Z"/>
    </g>
  </g>
</svg>